<svg xmlns="http://www.w3.org/2000/svg" viewBox="0 0 1200 630" fill="none">
  <defs>
    <linearGradient id="bg" x1="92" y1="85" x2="1119" y2="615" gradientUnits="userSpaceOnUse">
      <stop stop-color="#131A20"/><stop offset="1" stop-color="#0D1217"/>
    </linearGradient>
    <radialGradient id="glow" cx="0" cy="0" r="1" gradientTransform="matrix(364 252 -248 359 942 288)" gradientUnits="userSpaceOnUse">
      <stop stop-color="#347F90" stop-opacity=".4"/><stop offset="1" stop-color="#347F90" stop-opacity="0"/>
    </radialGradient>
  </defs>
  <path fill="url(#bg)" d="M0 0h1200v630H0z"/>
  <path fill="url(#glow)" d="M0 0h1200v630H0z"/>
  <path stroke="#29414A" stroke-opacity=".45" d="m747 80 361 209-361 209-361-209L747 80Z"/>
  <path stroke="#29414A" stroke-opacity=".25" d="m747 31 445 258-445 258-445-258L747 31Z"/>
  <g transform="translate(103 133) scale(1.12)">
    <path d="M24 3 43 13.8v20.4L24 45 5 34.2V13.8L24 3Z" fill="#172831" stroke="#70D5E5" stroke-width="1.4"/>
    <path d="m24 3 19 10.8-19 11L5 13.8 24 3Z" fill="#31515A" stroke="#8BE8F1" stroke-width="1.1"/>
    <path d="M5 13.8 24 24.8v20.1L5 34.2V13.8Z" fill="#1D343D" stroke="#70D5E5" stroke-width="1.1"/>
    <path d="m43 13.8-19 11v20.1l19-10.7V13.8Z" fill="#122129" stroke="#69C5D5" stroke-width="1.1"/>
    <path d="m13 19 4.8 2.7 3.3 10.1 3.2-6.4 3.4 2 3.4 10.2 4.1-11.5" stroke="#C3F4F7" stroke-width="2.4" stroke-linecap="square" stroke-linejoin="bevel"/>
  </g>
  <text x="106" y="250" fill="#80D8E6" font-family="monospace" font-size="16" letter-spacing="4">MINECRAFT INFRASTRUCTURE</text>
  <text x="106" y="337" fill="#F1F5F6" font-family="sans-serif" font-size="55" font-weight="700" letter-spacing="-2">Wchib Hosting</text>
  <text x="104" y="392" fill="#AEBBC1" font-family="sans-serif" font-size="24">Minecraft Hosting for Nepal &amp; India</text>
  <path stroke="#70D5E5" stroke-opacity=".5" d="M104 438h89"/>
  <text x="104" y="486" fill="#778991" font-family="monospace" font-size="13" letter-spacing="2">AMD EPYC · DDR4 · NVMe SSD</text>
</svg>